<?xml version="1.0" encoding="utf-8"?>
<!-- Generator: Adobe Illustrator 23.0.3, SVG Export Plug-In . SVG Version: 6.00 Build 0)  -->
<svg version="1.1" id="Layer_1" xmlns="http://www.w3.org/2000/svg" xmlns:xlink="http://www.w3.org/1999/xlink" x="0px" y="0px"
	 viewBox="0 0 300 850" style="enable-background:new 0 0 300 850;" xml:space="preserve">
<style type="text/css">
	.st0{opacity:0.5;}
	.st1{fill:#ECEFF0;}
</style>
<g class="st0">
	<path class="st1" d="M215.8,28.8c0-2.1-1.7-3.8-3.8-3.8c-2.1,0-3.8,1.7-3.8,3.8c0,2.1,1.7,3.8,3.8,3.8
		C214.1,32.6,215.8,30.9,215.8,28.8z"/>
	<path class="st1" d="M198.3,65.9c4.2,0,7.6-3.4,7.6-7.6s-3.4-7.6-7.6-7.6c-4.2,0-7.6,3.4-7.6,7.6S194.1,65.9,198.3,65.9z"/>
	<path class="st1" d="M183.8,92.8c3.7,0,6.7-3,6.7-6.7c0-3.7-3-6.7-6.7-6.7c-3.7,0-6.7,3-6.7,6.7C177.1,89.8,180.1,92.8,183.8,92.8z
		"/>
	<path class="st1" d="M176.4,121.5c2.2,0,4-1.8,4-4c0-2.2-1.8-4-4-4c-2.2,0-4,1.8-4,4C172.4,119.7,174.2,121.5,176.4,121.5z"/>
	<path class="st1" d="M200.8,148.8c0-3.5-2.8-6.3-6.3-6.3c-3.5,0-6.3,2.8-6.3,6.3c0,3.5,2.8,6.3,6.3,6.3
		C198,155.1,200.8,152.3,200.8,148.8z"/>
	<circle class="st1" cx="189.2" cy="178.8" r="5.9"/>
	<path class="st1" d="M165.7,214.6c2.8,0,5-2.2,5-5s-2.2-5-5-5s-5,2.2-5,5S162.9,214.6,165.7,214.6z"/>
	<path class="st1" d="M175.7,238c0-3.2-2.6-5.8-5.8-5.8c-3.2,0-5.8,2.6-5.8,5.8c0,3.2,2.6,5.8,5.8,5.8
		C173.1,243.8,175.7,241.2,175.7,238z"/>
	<path class="st1" d="M184.1,267.1c0-4-3.2-7.2-7.2-7.2c-4,0-7.2,3.2-7.2,7.2c0,4,3.2,7.2,7.2,7.2
		C180.9,274.2,184.1,271,184.1,267.1z"/>
	<path class="st1" d="M190.8,299.7c0-2.5-2-4.5-4.5-4.5c-2.5,0-4.5,2-4.5,4.5c0,2.5,2,4.5,4.5,4.5
		C188.8,304.1,190.8,302.1,190.8,299.7z"/>
	<path class="st1" d="M203.7,333.7c2.9,0,5.3-2.4,5.3-5.3c0-2.9-2.4-5.3-5.3-5.3c-2.9,0-5.3,2.4-5.3,5.3
		C198.3,331.4,200.7,333.7,203.7,333.7z"/>
	<path class="st1" d="M226.1,355.1c0-3.4-2.8-6.2-6.2-6.2c-3.4,0-6.2,2.8-6.2,6.2c0,3.4,2.8,6.2,6.2,6.2
		C223.3,361.2,226.1,358.5,226.1,355.1z"/>
	<path class="st1" d="M226.4,381c-2.5,0-4.6,2.1-4.6,4.6c0,2.5,2.1,4.6,4.6,4.6c2.5,0,4.6-2.1,4.6-4.6
		C231.1,383.1,229,381,226.4,381z"/>
	<path class="st1" d="M203.9,410.6c-3.1,0-5.6,2.5-5.6,5.6s2.5,5.6,5.6,5.6c3.1,0,5.6-2.5,5.6-5.6S207,410.6,203.9,410.6z"/>
	<path class="st1" d="M178.7,427.9c-3.5,0-6.5,2.6-7,6c-1.3,1-2.2,2.6-2.2,4.5c0,3.1,2.5,5.6,5.6,5.6c1.7,0,3.2-0.8,4.2-1.9
		c3.6-0.3,6.4-3.4,6.4-7.1C185.8,431.1,182.7,427.9,178.7,427.9z"/>
	<path class="st1" d="M170.3,472.1c3.5,0,6.3-2.8,6.3-6.3c0-3.5-2.8-6.3-6.3-6.3c-3.5,0-6.3,2.8-6.3,6.3
		C164,469.3,166.8,472.1,170.3,472.1z"/>
	<path class="st1" d="M147.8,494.8c3.1,0,5.6-2.5,5.6-5.6c0-3.1-2.5-5.6-5.6-5.6c-3.1,0-5.6,2.5-5.6,5.6
		C142.3,492.3,144.8,494.8,147.8,494.8z"/>
	<path class="st1" d="M141.5,522.1c0,2.1,1.7,3.7,3.7,3.7c2.1,0,3.7-1.7,3.7-3.7c0-2.1-1.7-3.7-3.7-3.7
		C143.2,518.4,141.5,520,141.5,522.1z"/>
	<path class="st1" d="M128.3,548.3c-2.8,0-5.1,2.3-5.1,5.1s2.3,5.1,5.1,5.1s5.1-2.3,5.1-5.1S131.1,548.3,128.3,548.3z"/>
	<path class="st1" d="M148,577.5c-2.5,0-4.6,2-4.6,4.6c0,2.5,2,4.6,4.6,4.6c2.5,0,4.6-2,4.6-4.6C152.5,579.6,150.5,577.5,148,577.5z
		"/>
	<path class="st1" d="M144,624.7c4.1,0,7.5-3.3,7.5-7.5c0-4.1-3.3-7.5-7.5-7.5c-4.1,0-7.5,3.3-7.5,7.5
		C136.5,621.4,139.9,624.7,144,624.7z"/>
	<path class="st1" d="M146.2,642.2c-3.5,0-6.3,2.8-6.3,6.3c0,3.5,2.8,6.3,6.3,6.3c3.5,0,6.3-2.8,6.3-6.3
		C152.4,645,149.6,642.2,146.2,642.2z"/>
	<path class="st1" d="M162.3,678.9c0-2.5-2-4.5-4.5-4.5c-2.5,0-4.5,2-4.5,4.5c0,2.5,2,4.5,4.5,4.5
		C160.3,683.4,162.3,681.4,162.3,678.9z"/>
	<path class="st1" d="M172.8,704.7c0,2.5,2,4.5,4.5,4.5c2.5,0,4.5-2,4.5-4.5c0-2.5-2-4.5-4.5-4.5
		C174.9,700.2,172.8,702.2,172.8,704.7z"/>
	<path class="st1" d="M176.7,735c0-3.3-2.7-5.9-5.9-5.9c-3.3,0-5.9,2.7-5.9,5.9c0,3.3,2.7,5.9,5.9,5.9
		C174.1,740.9,176.7,738.2,176.7,735z"/>
	<path class="st1" d="M179.7,760.1c-3.4,0-6.1,2.7-6.1,6.1c0,3.4,2.7,6.1,6.1,6.1c3.4,0,6.1-2.7,6.1-6.1
		C185.8,762.8,183.1,760.1,179.7,760.1z"/>
	<path class="st1" d="M162.7,791.6c-2.5,0-4.5,2-4.5,4.5c0,2.5,2,4.5,4.5,4.5c2.5,0,4.5-2,4.5-4.5
		C167.2,793.6,165.2,791.6,162.7,791.6z"/>
	<path class="st1" d="M142.9,815.5c-2.6,0-4.7,2.1-4.7,4.7c0,2.6,2.1,4.7,4.7,4.7c2.6,0,4.7-2.1,4.7-4.7
		C147.6,817.7,145.5,815.5,142.9,815.5z"/>
	<path class="st1" d="M97.8,60.5c3,0,5.4-2.4,5.4-5.4c0-3-2.4-5.4-5.4-5.4c-3,0-5.4,2.4-5.4,5.4C92.4,58,94.8,60.5,97.8,60.5z"/>
	<path class="st1" d="M108.7,100.8c3.5,0,6.4-2.9,6.4-6.4s-2.9-6.4-6.4-6.4c-3.5,0-6.4,2.9-6.4,6.4S105.2,100.8,108.7,100.8z"/>
	<path class="st1" d="M96.7,119.4c0,3.2,2.6,5.8,5.8,5.8c3.2,0,5.8-2.6,5.8-5.8c0-3.2-2.6-5.8-5.8-5.8
		C99.3,113.6,96.7,116.2,96.7,119.4z"/>
	<path class="st1" d="M73.8,143.7c-2.7,0-4.8,2.2-4.8,4.8c0,2.7,2.2,4.8,4.8,4.8c2.7,0,4.8-2.2,4.8-4.8
		C78.6,145.9,76.4,143.7,73.8,143.7z"/>
	<path class="st1" d="M95.1,170.6c-2.2,0-4,1.8-4,4c0,2.2,1.8,4,4,4c2.2,0,4-1.8,4-4C99.1,172.3,97.3,170.6,95.1,170.6z"/>
	<path class="st1" d="M112.2,193.6c-2.5,0-4.5,2-4.5,4.5c0,2.5,2,4.5,4.5,4.5c2.5,0,4.5-2,4.5-4.5
		C116.6,195.6,114.6,193.6,112.2,193.6z"/>
	<path class="st1" d="M105.3,227.2c-3.4,0-6.2,2.8-6.2,6.2c0,3.4,2.8,6.2,6.2,6.2c3.4,0,6.2-2.8,6.2-6.2
		C111.5,230,108.7,227.2,105.3,227.2z"/>
	<circle class="st1" cx="123.8" cy="261.5" r="5.5"/>
	<circle class="st1" cx="134.7" cy="292.8" r="7.1"/>
	<path class="st1" d="M153.4,322.8c3.6,0,6.5-2.9,6.5-6.5c0-3.6-2.9-6.5-6.5-6.5c-3.6,0-6.5,2.9-6.5,6.5
		C146.9,319.9,149.8,322.8,153.4,322.8z"/>
	<path class="st1" d="M162,347.5c0,2.4,1.9,4.4,4.4,4.4c2.4,0,4.4-1.9,4.4-4.4c0-2.4-1.9-4.4-4.4-4.4C164,343.1,162,345.1,162,347.5
		z"/>
	<circle class="st1" cx="180.5" cy="374.9" r="4.7"/>
	<circle class="st1" cx="169.1" cy="410.3" r="4.4"/>
	<circle class="st1" cx="194.6" cy="470" r="5.8"/>
	<path class="st1" d="M173.9,506.4c4.1,0,7.5-3.3,7.5-7.5s-3.3-7.5-7.5-7.5c-4.1,0-7.5,3.3-7.5,7.5S169.8,506.4,173.9,506.4z"/>
	<path class="st1" d="M184,537.1c0-2.9-2.4-5.3-5.3-5.3s-5.3,2.4-5.3,5.3c0,2.9,2.4,5.3,5.3,5.3S184,540.1,184,537.1z"/>
	<path class="st1" d="M147.8,545.9c-4.1,0-7.5,3.4-7.5,7.5c0,4.1,3.4,7.5,7.5,7.5c4.1,0,7.5-3.4,7.5-7.5
		C155.3,549.2,152,545.9,147.8,545.9z"/>
</g>
</svg>
