<svg width="200" height="100" xmlns="http://www.w3.org/2000/svg">
 <!-- Created with Method Draw - http://github.com/duopixel/Method-Draw/ -->

 <g>
  <title>background</title>
  <rect fill="none" id="canvas_background" height="102" width="202" y="-1" x="-1"/>
  <g display="none" overflow="visible" y="0" x="0" height="100%" width="100%" id="canvasGrid">
   <rect fill="url(#gridpattern)" stroke-width="0" y="0" x="0" height="100%" width="100%"/>
  </g>
 </g>
 <g>
  <title>Layer 1</title>
  <style transform="matrix(0.040000001192092904,0,0,0.040000001192092904,0,0) " type="text/css">.st0{fill:#474B4C;}
	.st1{fill:#494B4C;}
	.st2{display:none;fill:#333333;}
	.st3{display:none;fill:#474B4C;}
	.st4{display:none;fill:#4F5354;}
	.st5{display:none;fill:#545656;}
	.st6{display:none;fill:#FFFFFF;}
	.st7{fill:#15D1EA;}
	.st8{fill:#4F5354;}</style>
  <g stroke="null" transform="rotate(0.0683247372508049 100.27557373047368,-45.09762191772004) " id="svg_43">
   <g stroke="null" transform="matrix(0.320359191660696,0.0011126060202162106,-0.0011269007460689793,0.3057922101093862,-5.876274566678474,54.95603472757264) " id="svg_11">
    <g stroke="null" id="svg_9">
     <path stroke="null" id="svg_12" d="m464.195783,-704.646219l-267.8,0c-49.6,26.7 -90.2,67.8 -116.4,117.6l0,263.2c11.1,21 24.8,40.4 40.6,57.8l0,30.3c0,12.7 10.2,22.9 22.9,22.9l41.6,0l290.7,0l36.4,0c12.7,0 22.9,-10.2 22.9,-22.9l0,-24.6c18,-18.9 33.5,-40.2 45.7,-63.5l0,-263.3c-26.3,-49.8 -67,-90.9 -116.6,-117.5z" class="st0"/>
     <path stroke="null" id="svg_13" d="m422.795783,-704.646219l-68.6,0c-49.6,26.7 -90.2,67.8 -116.4,117.6l0,263.2c11.1,21 24.8,40.4 40.6,57.8l0,30.3c0,12.7 10.2,22.9 22.9,22.9l24.5,0l0,-59.7c-30.7,-25.8 -49.8,-63.1 -49.8,-63.1l0,-243.1c35.1,-66.1 102.4,-105.8 146.8,-125.9z" class="st1"/>
     <path stroke="null" id="svg_14" d="m607.195783,-600.746219l-15.8,0c-27.9,-50.1 -69,-90.9 -119.5,-118.1l-1.1,-0.6l0,-11.7c0,-25.8 -21,-46.8 -46.8,-46.8l-196.9,0c-25.8,0 -46.8,21 -46.8,46.8l0,17.2c-46.6,27.1 -84.8,66 -111.1,113.2l-15.8,0c-25.8,0 -46.8,21 -46.8,46.8l0,196.8c0,25.8 21,46.8 46.8,46.8l15.7,0c9.9,17.7 21.6,34.6 35.3,50.3l0,24.2c0,21.5 17.5,38.9 38.9,38.9l368.7,0c21.5,0 38.9,-17.5 38.9,-38.9l0,-18.3c15.7,-17.2 29.1,-36.1 40.4,-56.2l15.7,0c25.8,0 46.8,-21 46.8,-46.8l0,-196.7c0.3,-25.9 -20.8,-46.9 -46.6,-46.9zm-83.8,329.3l-4.5,4.6l0,31.1c0,3.8 -3.1,6.8 -6.9,6.8l-368.6,0c-3.8,0 -6.8,-3.1 -6.8,-6.8l0,-36.5l-4.1,-4.6c-14.3,-15.8 -26.6,-33 -36.5,-51.2l0,-255.1c24.2,-44.5 60.3,-80.9 104.5,-105.6l259.7,0c44.2,24.7 80.2,61 104.5,105.6l0,255.2c-11.2,20.5 -25.1,39.5 -41.3,56.5z" class="st0"/>
     <ellipse stroke="null" id="svg_15" ry="177.1" rx="177.1" cy="-332.905711" cx="965.805403" class="st0" transform="matrix(0.7071,-0.7071,0.7071,0.7071,-117.2613,462.7727) "/>
     <path stroke="null" id="svg_16" d="m330.295783,-262.346219c-106.5,0 -193.1,-86.7 -193.1,-193.1s86.6,-193.2 193.1,-193.2s193.1,86.7 193.1,193.1s-86.6,193.2 -193.1,193.2zm0,-354.2c-88.8,0 -161,72.2 -161,161s72.2,161 161,161s161,-72.2 161,-161s-72.2,-161 -161,-161z" class="st2"/>
     <ellipse stroke="null" id="svg_17" ry="134.1" rx="134.1" cy="-332.905711" cx="965.805403" class="st3" transform="matrix(0.7071,-0.7071,0.7071,0.7071,-117.2611,462.7729) "/>
     <path stroke="null" id="svg_18" d="m530.795783,-119.846219l0,-26c0,-4.9 -3.9,-8.8 -8.8,-8.8l-189.4,0l-4.6,0l-189.4,0c-4.9,0 -8.8,3.9 -8.8,8.8l0,26c-167.4,26.4 -201.3,132.6 -207.8,182.7c-1.8,14.1 9.2,26.5 23.4,26.5l382.6,0l4.6,0l382.6,0c14.2,0 25.3,-12.4 23.4,-26.5c-6.5,-50.1 -40.4,-156.3 -207.8,-182.7z" class="st4"/>
     <path stroke="null" id="svg_19" d="m424.995783,-154.746219c-4.9,0 -8.8,3.9 -8.8,8.8l0,26c-167.4,26.5 -201.3,132.7 -207.8,182.8c-1.8,14.1 9.2,26.5 23.4,26.5l26.1,0c12,-170.8 194.6,-170.3 194.6,-170.3l0,-73.8l-27.5,0z" class="st5"/>
     <path stroke="null" id="svg_20" d="m619.195783,-95.146219c-23.8,-10.8 -52.1,-19.4 -86,-24.8l0,-26c0,-4.9 -3.9,-8.8 -8.8,-8.8l-189.5,0l-4.6,0l-189.3,0c-4.9,0 -8.8,3.9 -8.8,8.8l0,26c-36.1,5.7 -66,15.1 -90.7,26.9c57.8,70.5 165.1,118 288.1,118c124,0 232.2,-48.4 289.6,-120.1z" class="st6"/>
     <path stroke="null" id="svg_21" d="m754.395783,59.453781c-4.6,-33.5 -22,-96.3 -85.5,-142.9c-15.1,-11.1 -31.8,-19.7 -49.2,-26.7c-18.6,-7.6 -46.4,-17.7 -72.8,-23.2l0,-12.5c0,-13.7 -11.1,-24.9 -24.9,-24.9l-383.4,0c-13.7,0 -24.9,11.1 -24.9,24.9l0,12.5c-30.5,6.5 -58.3,16.9 -76.7,24.8c-17.2,7.4 -33.8,16.4 -48.7,27.7c-60.7,46.3 -77.5,107.4 -82.1,140.3c-1,6.9 -0.5,14.1 2,20.6c6.3,15.8 21.2,25.5 37.1,25.5l769.9,0c16,0 30.9,-9.6 37.1,-25.4c2.6,-6.6 3.1,-13.8 2.1,-20.7zm-608.6,-165.6l0,-32.5l368.9,0l0,32.5l13.6,2.2c5.3,0.8 10.4,1.8 15.5,2.8c1,0.2 1.8,0.4 2.7,0.6c4.4,0.9 8.7,1.8 13,2.9c0.5,0.1 1,0.3 1.5,0.4c9.9,2.5 19.5,5.3 28.6,8.6c-58.9,60.6 -157.2,97.6 -262.7,97.6c-104.2,0 -201.9,-36.3 -261,-95.9c9.7,-3.6 20,-6.9 30.7,-9.6c0.7,-0.2 1.5,-0.4 2.2,-0.6c4.4,-1.1 8.8,-2.1 13.4,-3.1c1.1,-0.3 2.3,-0.5 3.4,-0.8c5.4,-1.1 10.8,-2.1 16.4,-3l13.8,-2.1zm575.1,176.9c-0.8,1 -2.7,2.6 -5.7,2.6l-769.8,0c-3,0 -4.9,-1.6 -5.7,-2.6c-0.8,-1 -2.2,-2.9 -1.8,-5.7c5.1,-39 25.3,-99.5 97.3,-138.1c64.2,70.6 174.5,114.2 291.9,114.2c118.9,0 230,-44.4 294,-116.4c75.6,38.5 96.5,100.7 101.7,140.4c0.3,2.6 -1,4.6 -1.9,5.6z" class="st3"/>
     <ellipse stroke="null" id="svg_22" ry="16" rx="16" cy="-66.705335" cx="660.248549" class="st3" transform="matrix(0.9239,-0.3827,0.3827,0.9239,-254.1413,249.4647) "/>
     <ellipse stroke="null" id="svg_23" ry="16" rx="16" cy="-66.705335" cx="660.248549" class="st3" transform="matrix(0.9239,-0.3827,0.3827,0.9239,-254.1413,249.4647) "/>
    </g>
    <g stroke="null" id="svg_8">
     <ellipse stroke="null" id="svg_24" ry="27.5" rx="27.5" cy="-466.555546" cx="383.722914" class="st7" transform="matrix(0.9979,-0.06407325,0.06407325,0.9979,-22.7513,32.7988) "/>
     <path stroke="null" id="svg_25" d="m330.295783,-519.846219c-84.6,0 -153.2,28 -153.2,62.5s68.6,62.5 153.2,62.5s153.2,-28 153.2,-62.5c0,-34.6 -68.6,-62.5 -153.2,-62.5zm103.5,94.9c-27.4,11.2 -64.2,17.4 -103.5,17.4s-76.1,-6.2 -103.5,-17.4c-23.2,-9.4 -37,-21.5 -37,-32.4c0,-10.8 13.8,-23 37,-32.4c27.4,-11.2 64.2,-17.4 103.5,-17.4c39.3,0 76.1,6.2 103.5,17.4c23.2,9.4 37,21.5 37,32.4c0,10.8 -13.8,22.9 -37,32.4z" class="st7"/>
     <path stroke="null" id="svg_26" d="m276.195783,-488.646219c-42.3,73.3 -52.4,146.7 -22.5,164c29.9,17.2 88.4,-28.2 130.8,-101.5s52.4,-146.7 22.5,-164c-30,-17.2 -88.5,28.2 -130.8,101.5zm133.9,-42.2c-4,29.4 -17.1,64.3 -36.7,98.4s-43.4,62.8 -66.8,81c-19.7,15.3 -37.1,21.3 -46.5,15.8c-9.4,-5.4 -13,-23.4 -9.5,-48.2c4,-29.4 17.1,-64.3 36.7,-98.4s43.4,-62.8 66.8,-81c19.7,-15.3 37.1,-21.3 46.5,-15.8c9.4,5.4 12.9,23.4 9.5,48.2z" class="st7"/>
     <path stroke="null" id="svg_27" d="m253.695783,-590.146219c-29.9,17.2 -19.8,90.7 22.5,164s100.9,118.7 130.8,101.5c29.9,-17.2 19.8,-90.7 -22.5,-164c-42.4,-73.3 -100.9,-118.7 -130.8,-101.5zm6.4,11.1c9.4,-5.4 26.8,0.5 46.5,15.8c23.4,18.2 47.2,47 66.8,81s32.7,69 36.7,98.4c3.4,24.8 -0.2,42.8 -9.5,48.2c-9.4,5.4 -26.8,-0.5 -46.5,-15.8c-23.4,-18.2 -47.2,-47 -66.8,-81c-19.7,-34 -32.7,-69 -36.7,-98.4c-3.5,-24.8 0,-42.8 9.5,-48.2z" class="st7"/>
    </g>
    <g stroke="null" id="svg_7">
     <g stroke="null" id="svg_28">
      <g stroke="null" id="svg_29">
       <path stroke="null" id="svg_30" d="m140.895783,116.553781c0.6,1 0.5,2 -0.1,3.1c-0.6,1 -1.5,1.5 -2.5,1.5l-28.1,0c-1.3,0 -2.2,-0.6 -2.7,-1.7l-34.1,-66.2l-1,0l-0.1,64.6c0,2 -1,3.1 -3.1,3.1l-27.6,0c-2,0 -3.1,-1 -3.1,-3.1l0,-67.3c-0.1,-0.4 -0.1,-0.6 -0.1,-0.4l0,-2.7c-3.1,-4.3 -7.3,-7.3 -12.8,-9c-0.4,-0.1 -0.7,-0.4 -0.7,-1s0.3,-0.8 0.7,-1c5.4,-1.7 9.7,-4.7 12.8,-9l0,-70.3c0,-1 0.3,-1.7 1,-2.4c0.6,-0.6 1.3,-1 2.2,-1l52.9,0c13.7,0 23.3,3.2 28.6,9.8c4.5,5.3 6.9,14.4 7.2,27.2c0.1,1.3 0.1,9.7 0,25.3l0,3.9c0,8.1 -2.2,14.8 -6.7,20.4c-4,5 -9.4,8.5 -16.2,10.6l33.5,65.6zm-44.1,-124.6c0,-2.5 -0.4,-4.3 -1.4,-5.3c-1.1,-1.2 -3.2,-1.8 -6.3,-1.8l-16.8,0l0,38.4l16.7,0c2.8,0 4.8,-0.6 5.9,-1.7c1.1,-1.1 1.7,-3.1 1.7,-5.6l0.2,-24l0,0z" class="st7"/>
       <path stroke="null" id="svg_31" d="m262.595783,117.953781c0,2.1 -1,3.1 -3.1,3.1l-76.9,0c-2.1,0 -3.1,-1 -3.1,-3.1l0,-68.2c-2.9,-4.3 -7.3,-7.4 -12.9,-9.2c-0.4,-0.1 -0.7,-0.4 -0.7,-0.8c0,-0.6 0.3,-0.9 0.7,-1c5.6,-1.7 9.9,-4.7 12.9,-9.1l0,-72.3c0,-2 1,-3.1 3.1,-3.1l73.7,0c2.1,0 3.1,1 3.1,3.1l0,24.1c0,2 -1,3.1 -3.1,3.1l-43.1,0l0,39.8l41.7,0c2,0 3.1,1 3.1,3.1l0,24.1c0,2 -1,3.1 -3.1,3.1l-41.7,0l0,36.4l46.3,0c2,0 3.1,1 3.1,3.1l0,23.8z" class="st7"/>
       <path stroke="null" id="svg_32" d="m395.595783,69.353781c0.4,0.1 0.7,0.4 0.7,1s-0.3,0.8 -0.7,1c-3.4,1.1 -6.8,3.1 -10.1,6l7.3,40.3c0.3,1 0.1,1.7 -0.6,2.4c-0.6,0.8 -1.5,1.1 -2.4,1.1l-26.8,0c-1.8,0 -2.8,-0.9 -3.1,-2.7l-4.5,-33l-24.9,0l-4.5,33c-0.3,1.8 -1.3,2.7 -3.1,2.7l-26.8,0c-1,0 -1.7,-0.4 -2.4,-1.1c-0.6,-0.7 -0.8,-1.5 -0.7,-2.4l7.3,-39.7c-3.2,-3.2 -6.9,-5.5 -10.9,-6.7c-0.4,-0.1 -0.7,-0.3 -0.7,-0.8c0,-0.6 0.3,-0.8 0.7,-1c7,-2.2 11.6,-5.9 14.1,-11.1c0,-0.1 0.1,-0.3 0.3,-0.3l0.3,-0.1l18.6,-101.1c0.3,-1.7 1.3,-2.5 3.1,-2.5l34.4,0c1.7,0 2.7,0.8 3.1,2.5l18.8,102.6c2.8,4.7 4.2,7.1 4.2,7.1s3.1,0.8 9.3,2.8zm-45.1,-14.2l-7.6,-47.6l-7.4,47.6l15,0z" class="st7"/>
       <path stroke="null" id="svg_33" d="m487.195783,-0.446219c0,-5 -0.9,-8.8 -2.7,-11.6c-1.7,-2.8 -4.1,-4.2 -7.3,-4.2c-4,0 -6.8,0.9 -8.4,2.7c-1.9,2 -2.9,5.9 -2.9,11.6l0,34c2.4,4.2 6.6,7.3 12.9,9.2c0.4,0.1 0.7,0.4 0.7,1c0,0.5 -0.3,0.8 -0.7,1c-6.5,1.9 -10.8,4.8 -12.9,8.7l0,25.5c0,5.7 1,9.7 2.9,11.8c1.5,1.7 4.3,2.5 8.4,2.5c3.5,0 6,-0.8 7.4,-2.4c1.7,-1.9 2.5,-5.4 2.5,-10.5l0,-14.4c0,-1.9 1,-2.9 3.1,-2.9l26.9,0c2,0 3.1,1 3.1,2.9l0,13.6c0,13 -3.9,23.5 -11.8,31.3c-7.8,7.8 -18.1,11.8 -31.2,11.8c-13.6,0 -24.3,-3.8 -32.3,-11.5c-7.9,-7.8 -11.9,-18.3 -11.9,-31.6l0,-26.1c-2.9,-4.3 -7.1,-7.3 -12.6,-9c-0.4,-0.1 -0.7,-0.4 -0.7,-0.8c0,-0.6 0.3,-0.8 0.7,-1c5.4,-1.7 9.6,-4.7 12.6,-9l0,-34.9c0,-13.2 3.9,-23.7 11.9,-31.4c7.9,-7.8 18.6,-11.6 32.3,-11.6c13,0 23.4,4.2 31.2,12.6c7.8,8.3 11.8,19.4 11.8,33.4l0,7c0,2 -1,3.1 -3.1,3.1l-26.9,0c-2,0 -3.1,-1 -3.1,-3.1l0,-7.7l0.1,0z" class="st7"/>
       <path stroke="null" id="svg_34" d="m632.495783,-45.346219c2,0 3.1,1 3.1,3.1l0,23.9c0,2.1 -1,3.1 -3.1,3.1l-23.6,0l0,43.5c3.1,4.1 7.3,7 12.7,8.6c0.4,0.1 0.7,0.4 0.7,1s-0.3,0.8 -0.7,1c-5.3,1.7 -9.5,4.5 -12.7,8.7l0,70.5c0,2 -1,3.1 -3.1,3.1l-27.5,0c-2,0 -3.1,-1 -3.1,-3.1l0,-69.6c-2.9,-4.6 -7.3,-7.8 -13.2,-9.5c-0.4,-0.1 -0.6,-0.4 -0.6,-1c0,-0.6 0.2,-0.8 0.6,-1c5.9,-1.8 10.3,-5 13.2,-9.7l0,-42.5l-23.5,0c-2.1,0 -3.1,-1 -3.1,-3.1l0,-23.9c0,-2.1 1,-3.1 3.1,-3.1l80.8,0z" class="st7"/>
      </g>
      <g stroke="null" id="svg_35">
       <path stroke="null" id="svg_36" d="m128.295783,-85.046219l0,-56.7l15.4,0l0,56.7l-15.4,0z" class="st8"/>
       <path stroke="null" id="svg_37" d="m188.595783,-85.046219l-11.6,-40.9l-0.3,0c0.6,6.9 0.8,12.3 0.8,16.2l0,24.6l-13.6,0l0,-56.7l20.4,0l11.8,40.3l0.3,0l11.6,-40.3l20.4,0l0,56.7l-14.1,0l0,-24.9c0,-1.3 0,-2.7 0.1,-4.3s0.2,-5.5 0.5,-11.6l-0.3,0l-11.3,40.9l-14.7,0z" class="st8"/>
       <path stroke="null" id="svg_38" d="m282.295783,-85.046219l-33.7,0l0,-56.7l33.7,0l0,12.3l-18.3,0l0,8.9l17,0l0,12.3l-17,0l0,10.7l18.3,0l0,12.5z" class="st8"/>
       <path stroke="null" id="svg_39" d="m315.495783,-105.646219l0,20.6l-15.3,0l0,-56.7l18.6,0c15.4,0 23.1,5.6 23.1,16.7c0,6.6 -3.2,11.6 -9.6,15.3l16.5,24.7l-17.4,0l-12,-20.6l-3.9,0l0,0zm0,-11.5l2.9,0c5.3,0 8,-2.4 8,-7.1c0,-3.9 -2.6,-5.9 -7.9,-5.9l-3.1,0l0.1,13l0,0z" class="st8"/>
       <path stroke="null" id="svg_40" d="m398.995783,-102.246219c0,3.5 -0.9,6.6 -2.7,9.4c-1.8,2.7 -4.3,4.8 -7.7,6.4c-3.4,1.5 -7.3,2.3 -11.8,2.3c-3.8,0 -6.9,-0.3 -9.5,-0.8s-5.2,-1.5 -8,-2.8l0,-13.7c2.9,1.5 6,2.7 9.1,3.5c3.2,0.8 6,1.3 8.7,1.3c2.3,0 3.9,-0.4 5,-1.2c1.1,-0.8 1.6,-1.8 1.6,-3.1c0,-0.8 -0.2,-1.5 -0.6,-2c-0.4,-0.6 -1.1,-1.1 -2,-1.8c-1,-0.6 -3.4,-1.8 -7.6,-3.6c-3.7,-1.7 -6.5,-3.3 -8.3,-4.9c-1.8,-1.6 -3.2,-3.4 -4.1,-5.4c-0.9,-2 -1.3,-4.5 -1.3,-7.3c0,-5.2 1.9,-9.3 5.7,-12.2s9,-4.4 15.7,-4.4c5.9,0 11.8,1.3 17.9,4.1l-4.7,11.8c-5.3,-2.4 -9.9,-3.6 -13.7,-3.6c-2,0 -3.4,0.3 -4.3,1c-0.9,0.7 -1.3,1.6 -1.3,2.6c0,1.1 0.6,2.1 1.7,3c1.1,0.9 4.3,2.5 9.4,4.8c4.9,2.2 8.3,4.6 10.2,7.1c1.6,2.5 2.6,5.6 2.6,9.5z" class="st8"/>
       <path stroke="null" id="svg_41" d="m450.395783,-85.046219l-2.8,-10.6l-18.5,0l-2.9,10.6l-16.9,0l18.5,-56.9l20.4,0l18.7,56.9l-16.5,0zm-4.9,-61.2c-1.1,0 -2.4,-0.2 -3.5,-0.6c-1.1,-0.4 -2.4,-0.8 -3.5,-1.3s-2.2,-0.9 -3.3,-1.3c-1.1,-0.4 -2.1,-0.6 -3.1,-0.6c-1.4,0 -2.4,1.3 -2.8,3.8l-7,0c0.3,-4.5 1.2,-7.9 2.8,-10.1s3.9,-3.2 7,-3.2c1,0 2,0.2 3.1,0.6s2.2,0.8 3.4,1.3s2.3,0.9 3.4,1.3s2.2,0.6 3.1,0.6c0.8,0 1.3,-0.3 1.8,-1c0.4,-0.6 0.8,-1.6 1,-2.9l7.1,0c-0.3,4.3 -1.3,7.6 -2.9,9.9c-1.6,2.4 -3.8,3.5 -6.6,3.5zm-1,38l-2.4,-9.3c-0.6,-2.1 -1.3,-4.8 -2.1,-8c-0.8,-3.2 -1.3,-5.7 -1.6,-7.1c-0.3,1.3 -0.7,3.5 -1.4,6.5c-0.7,3.1 -2.2,9 -4.6,17.9l12.1,0z" class="st8"/>
       <path stroke="null" id="svg_42" d="m534.395783,-113.546219c0,9.5 -2.4,16.8 -7,21.8c-4.7,5 -11.5,7.4 -20.6,7.4c-8.9,0 -15.7,-2.5 -20.5,-7.5c-4.8,-5 -7.1,-12.3 -7.1,-21.8c0,-9.4 2.4,-16.7 7.1,-21.6c4.7,-5 11.6,-7.4 20.6,-7.4c9,0 15.8,2.5 20.5,7.4c4.6,4.9 7,12.2 7,21.7zm-39,0c0,10.9 3.8,16.4 11.5,16.4c3.9,0 6.7,-1.3 8.7,-4c1.9,-2.7 2.8,-6.8 2.8,-12.5c0,-5.7 -1,-9.9 -2.9,-12.5c-1.9,-2.7 -4.7,-4.1 -8.5,-4.1c-7.8,0.1 -11.6,5.7 -11.6,16.7z" class="st8"/>
      </g>
     </g>
    </g>
   </g>
  </g>
 </g>
</svg>