<?xml version="1.0" encoding="utf-8"?>
<!-- Generator: Adobe Illustrator 23.0.3, SVG Export Plug-In . SVG Version: 6.00 Build 0)  -->
<svg version="1.1" id="Logo" xmlns="http://www.w3.org/2000/svg" xmlns:xlink="http://www.w3.org/1999/xlink" x="0px" y="0px"
	 viewBox="0 0 1000 1000" style="enable-background:new 0 0 1000 1000;" xml:space="preserve">
<style type="text/css">
	.st0{fill:#474B4C;}
	.st1{fill:#494B4C;}
	.st2{display:none;fill:#333333;}
	.st3{display:none;fill:#474B4C;}
	.st4{display:none;fill:#4F5354;}
	.st5{display:none;fill:#545656;}
	.st6{display:none;fill:#FFFFFF;}
	.st7{fill:#15D1EA;}
	.st8{fill:#4F5354;}
</style>
<g>
	<g id="Capacete_1_">
		<path class="st0" d="M633.9,123.8H366.1c-49.6,26.7-90.2,67.8-116.4,117.6v263.2c11.1,21,24.8,40.4,40.6,57.8v30.3
			c0,12.7,10.2,22.9,22.9,22.9h41.6h290.7h36.4c12.7,0,22.9-10.2,22.9-22.9v-24.6c18-18.9,33.5-40.2,45.7-63.5V241.3
			C724.2,191.5,683.5,150.4,633.9,123.8z"/>
		<path class="st1" d="M592.5,123.8h-68.6c-49.6,26.7-90.2,67.8-116.4,117.6v263.2c11.1,21,24.8,40.4,40.6,57.8v30.3
			c0,12.7,10.2,22.9,22.9,22.9h24.5v-59.7c-30.7-25.8-49.8-63.1-49.8-63.1V249.7C480.8,183.6,548.1,143.9,592.5,123.8z"/>
		<path class="st0" d="M776.9,227.7h-15.8c-27.9-50.1-69-90.9-119.5-118.1l-1.1-0.6V97.3c0-25.8-21-46.8-46.8-46.8H396.8
			c-25.8,0-46.8,21-46.8,46.8v17.2c-46.6,27.1-84.8,66-111.1,113.2h-15.8c-25.8,0-46.8,21-46.8,46.8v196.8c0,25.8,21,46.8,46.8,46.8
			h15.7c9.9,17.7,21.6,34.6,35.3,50.3v24.2c0,21.5,17.5,38.9,38.9,38.9h368.7c21.5,0,38.9-17.5,38.9-38.9v-18.3
			c15.7-17.2,29.1-36.1,40.4-56.2h15.7c25.8,0,46.8-21,46.8-46.8V274.6C823.8,248.7,802.7,227.7,776.9,227.7z M693.1,557l-4.5,4.6
			v31.1c0,3.8-3.1,6.8-6.9,6.8H313.1c-3.8,0-6.8-3.1-6.8-6.8v-36.5l-4.1-4.6c-14.3-15.8-26.6-33-36.5-51.2V245.3
			c24.2-44.5,60.3-80.9,104.5-105.6h259.7c44.2,24.7,80.2,61,104.5,105.6v255.2C723.2,521,709.3,540,693.1,557z"/>
		
			<ellipse transform="matrix(0.7071 -0.7071 0.7071 0.7071 -117.2613 462.7727)" class="st0" cx="500" cy="372.9" rx="177.1" ry="177.1"/>
		<path class="st2" d="M500,566.1c-106.5,0-193.1-86.7-193.1-193.1S393.5,179.8,500,179.8s193.1,86.7,193.1,193.1
			S606.5,566.1,500,566.1z M500,211.9c-88.8,0-161,72.2-161,161s72.2,161,161,161s161-72.2,161-161S588.8,211.9,500,211.9z"/>
		
			<ellipse transform="matrix(0.7071 -0.7071 0.7071 0.7071 -117.2611 462.7729)" class="st3" cx="500" cy="372.9" rx="134.1" ry="134.1"/>
		<path class="st4" d="M700.5,708.6v-26c0-4.9-3.9-8.8-8.8-8.8H502.3h-4.6H308.3c-4.9,0-8.8,3.9-8.8,8.8v26
			C132.1,735,98.2,841.2,91.7,891.3c-1.8,14.1,9.2,26.5,23.4,26.5h382.6h4.6h382.6c14.2,0,25.3-12.4,23.4-26.5
			C901.8,841.2,867.9,735,700.5,708.6z"/>
		<path class="st5" d="M594.7,673.7c-4.9,0-8.8,3.9-8.8,8.8v26C418.5,735,384.6,841.2,378.1,891.3c-1.8,14.1,9.2,26.5,23.4,26.5
			h26.1c12-170.8,194.6-170.3,194.6-170.3v-73.8H594.7z"/>
		<path class="st6" d="M788.9,733.3c-23.8-10.8-52.1-19.4-86-24.8v-26c0-4.9-3.9-8.8-8.8-8.8H504.6h-4.6H310.7
			c-4.9,0-8.8,3.9-8.8,8.8v26c-36.1,5.7-66,15.1-90.7,26.9c57.8,70.5,165.1,118,288.1,118C623.3,853.4,731.5,805,788.9,733.3z"/>
		<path class="st3" d="M924.1,887.9c-4.6-33.5-22-96.3-85.5-142.9c-15.1-11.1-31.8-19.7-49.2-26.7c-18.6-7.6-46.4-17.7-72.8-23.2
			v-12.5c0-13.7-11.1-24.9-24.9-24.9H308.3c-13.7,0-24.9,11.1-24.9,24.9v12.5c-30.5,6.5-58.3,16.9-76.7,24.8
			c-17.2,7.4-33.8,16.4-48.7,27.7C97.3,793.9,80.5,855,75.9,887.9c-1,6.9-0.5,14.1,2,20.6C84.2,924.3,99.1,934,115,934h769.9
			c16,0,30.9-9.6,37.1-25.4C924.6,902,925.1,894.8,924.1,887.9z M315.5,722.3v-32.5h368.9v32.5l13.6,2.2c5.3,0.8,10.4,1.8,15.5,2.8
			c1,0.2,1.8,0.4,2.7,0.6c4.4,0.9,8.7,1.8,13,2.9c0.5,0.1,1,0.3,1.5,0.4c9.9,2.5,19.5,5.3,28.6,8.6
			c-58.9,60.6-157.2,97.6-262.7,97.6c-104.2,0-201.9-36.3-261-95.9c9.7-3.6,20-6.9,30.7-9.6c0.7-0.2,1.5-0.4,2.2-0.6
			c4.4-1.1,8.8-2.1,13.4-3.1c1.1-0.3,2.3-0.5,3.4-0.8c5.4-1.1,10.8-2.1,16.4-3L315.5,722.3z M890.6,899.2c-0.8,1-2.7,2.6-5.7,2.6
			H115.1c-3,0-4.9-1.6-5.7-2.6c-0.8-1-2.2-2.9-1.8-5.7c5.1-39,25.3-99.5,97.3-138.1c64.2,70.6,174.5,114.2,291.9,114.2
			c118.9,0,230-44.4,294-116.4c75.6,38.5,96.5,100.7,101.7,140.4C892.8,896.2,891.5,898.2,890.6,899.2z"/>
		<ellipse transform="matrix(0.9239 -0.3827 0.3827 0.9239 -254.1413 249.4647)" class="st3" cx="500" cy="763.6" rx="16" ry="16"/>
		<ellipse transform="matrix(0.9239 -0.3827 0.3827 0.9239 -254.1413 249.4647)" class="st3" cx="500" cy="763.6" rx="16" ry="16"/>
	</g>
	<g id="Logo_React">
		
			<ellipse transform="matrix(0.9979 -6.407325e-02 6.407325e-02 0.9979 -22.7513 32.7988)" class="st7" cx="500" cy="371.1" rx="27.5" ry="27.5"/>
		<path class="st7" d="M500,308.6c-84.6,0-153.2,28-153.2,62.5s68.6,62.5,153.2,62.5s153.2-28,153.2-62.5
			C653.2,336.5,584.6,308.6,500,308.6z M603.5,403.5c-27.4,11.2-64.2,17.4-103.5,17.4s-76.1-6.2-103.5-17.4
			c-23.2-9.4-37-21.5-37-32.4c0-10.8,13.8-23,37-32.4c27.4-11.2,64.2-17.4,103.5-17.4c39.3,0,76.1,6.2,103.5,17.4
			c23.2,9.4,37,21.5,37,32.4C640.5,381.9,626.7,394,603.5,403.5z"/>
		<path class="st7" d="M445.9,339.8c-42.3,73.3-52.4,146.7-22.5,164c29.9,17.2,88.4-28.2,130.8-101.5s52.4-146.7,22.5-164
			C546.7,221.1,488.2,266.5,445.9,339.8z M579.8,297.6c-4,29.4-17.1,64.3-36.7,98.4s-43.4,62.8-66.8,81
			c-19.7,15.3-37.1,21.3-46.5,15.8c-9.4-5.4-13-23.4-9.5-48.2c4-29.4,17.1-64.3,36.7-98.4s43.4-62.8,66.8-81
			c19.7-15.3,37.1-21.3,46.5-15.8C579.7,254.8,583.2,272.8,579.8,297.6z"/>
		<path class="st7" d="M423.4,238.3c-29.9,17.2-19.8,90.7,22.5,164s100.9,118.7,130.8,101.5c29.9-17.2,19.8-90.7-22.5-164
			C511.8,266.5,453.3,221.1,423.4,238.3z M429.8,249.4c9.4-5.4,26.8,0.5,46.5,15.8c23.4,18.2,47.2,47,66.8,81s32.7,69,36.7,98.4
			c3.4,24.8-0.2,42.8-9.5,48.2c-9.4,5.4-26.8-0.5-46.5-15.8c-23.4-18.2-47.2-47-66.8-81c-19.7-34-32.7-69-36.7-98.4
			C416.8,272.8,420.3,254.8,429.8,249.4z"/>
	</g>
	<g id="Texto">
		<g>
			<g>
				<path class="st7" d="M310.6,945c0.6,1,0.5,2-0.1,3.1c-0.6,1-1.5,1.5-2.5,1.5h-28.1c-1.3,0-2.2-0.6-2.7-1.7l-34.1-66.2h-1
					l-0.1,64.6c0,2-1,3.1-3.1,3.1h-27.6c-2,0-3.1-1-3.1-3.1V879c-0.1-0.4-0.1-0.6-0.1-0.4v-2.7c-3.1-4.3-7.3-7.3-12.8-9
					c-0.4-0.1-0.7-0.4-0.7-1s0.3-0.8,0.7-1c5.4-1.7,9.7-4.7,12.8-9v-70.3c0-1,0.3-1.7,1-2.4c0.6-0.6,1.3-1,2.2-1h52.9
					c13.7,0,23.3,3.2,28.6,9.8c4.5,5.3,6.9,14.4,7.2,27.2c0.1,1.3,0.1,9.7,0,25.3v3.9c0,8.1-2.2,14.8-6.7,20.4
					c-4,5-9.4,8.5-16.2,10.6L310.6,945z M266.5,820.4c0-2.5-0.4-4.3-1.4-5.3c-1.1-1.2-3.2-1.8-6.3-1.8H242v38.4h16.7
					c2.8,0,4.8-0.6,5.9-1.7c1.1-1.1,1.7-3.1,1.7-5.6L266.5,820.4L266.5,820.4z"/>
				<path class="st7" d="M432.3,946.4c0,2.1-1,3.1-3.1,3.1h-76.9c-2.1,0-3.1-1-3.1-3.1v-68.2c-2.9-4.3-7.3-7.4-12.9-9.2
					c-0.4-0.1-0.7-0.4-0.7-0.8c0-0.6,0.3-0.9,0.7-1c5.6-1.7,9.9-4.7,12.9-9.1v-72.3c0-2,1-3.1,3.1-3.1h73.7c2.1,0,3.1,1,3.1,3.1
					v24.1c0,2-1,3.1-3.1,3.1h-43.1v39.8h41.7c2,0,3.1,1,3.1,3.1v24.1c0,2-1,3.1-3.1,3.1h-41.7v36.4h46.3c2,0,3.1,1,3.1,3.1V946.4z"
					/>
				<path class="st7" d="M565.3,897.8c0.4,0.1,0.7,0.4,0.7,1s-0.3,0.8-0.7,1c-3.4,1.1-6.8,3.1-10.1,6l7.3,40.3
					c0.3,1,0.1,1.7-0.6,2.4c-0.6,0.8-1.5,1.1-2.4,1.1h-26.8c-1.8,0-2.8-0.9-3.1-2.7l-4.5-33h-24.9l-4.5,33c-0.3,1.8-1.3,2.7-3.1,2.7
					h-26.8c-1,0-1.7-0.4-2.4-1.1c-0.6-0.7-0.8-1.5-0.7-2.4l7.3-39.7c-3.2-3.2-6.9-5.5-10.9-6.7c-0.4-0.1-0.7-0.3-0.7-0.8
					c0-0.6,0.3-0.8,0.7-1c7-2.2,11.6-5.9,14.1-11.1c0-0.1,0.1-0.3,0.3-0.3l0.3-0.1l18.6-101.1c0.3-1.7,1.3-2.5,3.1-2.5h34.4
					c1.7,0,2.7,0.8,3.1,2.5l18.8,102.6c2.8,4.7,4.2,7.1,4.2,7.1S559.1,895.8,565.3,897.8z M520.2,883.6l-7.6-47.6l-7.4,47.6H520.2z"
					/>
				<path class="st7" d="M656.9,828c0-5-0.9-8.8-2.7-11.6c-1.7-2.8-4.1-4.2-7.3-4.2c-4,0-6.8,0.9-8.4,2.7c-1.9,2-2.9,5.9-2.9,11.6
					v34c2.4,4.2,6.6,7.3,12.9,9.2c0.4,0.1,0.7,0.4,0.7,1c0,0.5-0.3,0.8-0.7,1c-6.5,1.9-10.8,4.8-12.9,8.7v25.5c0,5.7,1,9.7,2.9,11.8
					c1.5,1.7,4.3,2.5,8.4,2.5c3.5,0,6-0.8,7.4-2.4c1.7-1.9,2.5-5.4,2.5-10.5v-14.4c0-1.9,1-2.9,3.1-2.9h26.9c2,0,3.1,1,3.1,2.9v13.6
					c0,13-3.9,23.5-11.8,31.3c-7.8,7.8-18.1,11.8-31.2,11.8c-13.6,0-24.3-3.8-32.3-11.5c-7.9-7.8-11.9-18.3-11.9-31.6v-26.1
					c-2.9-4.3-7.1-7.3-12.6-9c-0.4-0.1-0.7-0.4-0.7-0.8c0-0.6,0.3-0.8,0.7-1c5.4-1.7,9.6-4.7,12.6-9v-34.9
					c0-13.2,3.9-23.7,11.9-31.4c7.9-7.8,18.6-11.6,32.3-11.6c13,0,23.4,4.2,31.2,12.6c7.8,8.3,11.8,19.4,11.8,33.4v7
					c0,2-1,3.1-3.1,3.1h-26.9c-2,0-3.1-1-3.1-3.1V828z"/>
				<path class="st7" d="M802.2,783.1c2,0,3.1,1,3.1,3.1v23.9c0,2.1-1,3.1-3.1,3.1h-23.6v43.5c3.1,4.1,7.3,7,12.7,8.6
					c0.4,0.1,0.7,0.4,0.7,1s-0.3,0.8-0.7,1c-5.3,1.7-9.5,4.5-12.7,8.7v70.5c0,2-1,3.1-3.1,3.1H748c-2,0-3.1-1-3.1-3.1v-69.6
					c-2.9-4.6-7.3-7.8-13.2-9.5c-0.4-0.1-0.6-0.4-0.6-1c0-0.6,0.2-0.8,0.6-1c5.9-1.8,10.3-5,13.2-9.7v-42.5h-23.5
					c-2.1,0-3.1-1-3.1-3.1v-23.9c0-2.1,1-3.1,3.1-3.1H802.2z"/>
			</g>
			<g>
				<path class="st8" d="M298,743.4v-56.7h15.4v56.7H298z"/>
				<path class="st8" d="M358.3,743.4l-11.6-40.9h-0.3c0.6,6.9,0.8,12.3,0.8,16.2v24.6h-13.6v-56.7h20.4l11.8,40.3h0.3l11.6-40.3
					h20.4v56.7h-14.1v-24.9c0-1.3,0-2.7,0.1-4.3s0.2-5.5,0.5-11.6h-0.3L373,743.4H358.3z"/>
				<path class="st8" d="M452,743.4h-33.7v-56.7H452V699h-18.3v8.9h17v12.3h-17v10.7H452V743.4z"/>
				<path class="st8" d="M485.2,722.8v20.6h-15.3v-56.7h18.6c15.4,0,23.1,5.6,23.1,16.7c0,6.6-3.2,11.6-9.6,15.3l16.5,24.7h-17.4
					l-12-20.6L485.2,722.8L485.2,722.8z M485.2,711.3h2.9c5.3,0,8-2.4,8-7.1c0-3.9-2.6-5.9-7.9-5.9h-3.1L485.2,711.3L485.2,711.3z"
					/>
				<path class="st8" d="M568.7,726.2c0,3.5-0.9,6.6-2.7,9.4c-1.8,2.7-4.3,4.8-7.7,6.4c-3.4,1.5-7.3,2.3-11.8,2.3
					c-3.8,0-6.9-0.3-9.5-0.8s-5.2-1.5-8-2.8V727c2.9,1.5,6,2.7,9.1,3.5c3.2,0.8,6,1.3,8.7,1.3c2.3,0,3.9-0.4,5-1.2
					c1.1-0.8,1.6-1.8,1.6-3.1c0-0.8-0.2-1.5-0.6-2c-0.4-0.6-1.1-1.1-2-1.8c-1-0.6-3.4-1.8-7.6-3.6c-3.7-1.7-6.5-3.3-8.3-4.9
					c-1.8-1.6-3.2-3.4-4.1-5.4c-0.9-2-1.3-4.5-1.3-7.3c0-5.2,1.9-9.3,5.7-12.2s9-4.4,15.7-4.4c5.9,0,11.8,1.3,17.9,4.1l-4.7,11.8
					c-5.3-2.4-9.9-3.6-13.7-3.6c-2,0-3.4,0.3-4.3,1c-0.9,0.7-1.3,1.6-1.3,2.6c0,1.1,0.6,2.1,1.7,3c1.1,0.9,4.3,2.5,9.4,4.8
					c4.9,2.2,8.3,4.6,10.2,7.1C567.7,719.2,568.7,722.3,568.7,726.2z"/>
				<path class="st8" d="M620.1,743.4l-2.8-10.6h-18.5l-2.9,10.6h-16.9l18.5-56.9h20.4l18.7,56.9H620.1z M615.2,682.2
					c-1.1,0-2.4-0.2-3.5-0.6c-1.1-0.4-2.4-0.8-3.5-1.3s-2.2-0.9-3.3-1.3c-1.1-0.4-2.1-0.6-3.1-0.6c-1.4,0-2.4,1.3-2.8,3.8h-7
					c0.3-4.5,1.2-7.9,2.8-10.1s3.9-3.2,7-3.2c1,0,2,0.2,3.1,0.6s2.2,0.8,3.4,1.3s2.3,0.9,3.4,1.3s2.2,0.6,3.1,0.6
					c0.8,0,1.3-0.3,1.8-1c0.4-0.6,0.8-1.6,1-2.9h7.1c-0.3,4.3-1.3,7.6-2.9,9.9C620.2,681.1,618,682.2,615.2,682.2z M614.2,720.2
					l-2.4-9.3c-0.6-2.1-1.3-4.8-2.1-8c-0.8-3.2-1.3-5.7-1.6-7.1c-0.3,1.3-0.7,3.5-1.4,6.5c-0.7,3.1-2.2,9-4.6,17.9H614.2z"/>
				<path class="st8" d="M704.1,714.9c0,9.5-2.4,16.8-7,21.8c-4.7,5-11.5,7.4-20.6,7.4c-8.9,0-15.7-2.5-20.5-7.5
					c-4.8-5-7.1-12.3-7.1-21.8c0-9.4,2.4-16.7,7.1-21.6c4.7-5,11.6-7.4,20.6-7.4c9,0,15.8,2.5,20.5,7.4
					C701.7,698.1,704.1,705.4,704.1,714.9z M665.1,714.9c0,10.9,3.8,16.4,11.5,16.4c3.9,0,6.7-1.3,8.7-4c1.9-2.7,2.8-6.8,2.8-12.5
					c0-5.7-1-9.9-2.9-12.5c-1.9-2.7-4.7-4.1-8.5-4.1C668.9,698.3,665.1,703.9,665.1,714.9z"/>
			</g>
		</g>
	</g>
</g>
</svg>
